<svg xmlns="http://www.w3.org/2000/svg" width="264" height="50.667"><path fill="#e42129" fill-rule="evenodd" d="M82.382 30.528a5.928 5.928 0 0 1-.03-.683c0-.984.242-1.833.734-2.542a4.703 4.703 0 0 1 1.848-1.59c.746-.357 1.465-.533 2.169-.533.57 0 1.139.099 1.708.29a5.056 5.056 0 0 1 1.553.855c.466.377.85.858 1.14 1.438.289.585.45 1.243.48 1.983h-2.33c-.04-.818-.3-1.413-.786-1.791-.482-.378-1.072-.57-1.765-.57-.61 0-1.18.202-1.704.601-.528.398-.807.984-.843 1.76.005.02.036.145.088.383l.103.455c.156.565.69 1.036 1.6 1.409.911.377 1.827.74 2.749 1.087.921.347 1.702.854 2.34 1.527.636.673.958 1.63.958 2.873 0 .212-.021.528-.068.937-.13 1.045-.47 1.905-1.035 2.583-.564.678-1.233 1.17-1.993 1.47-.766.3-1.517.45-2.257.45-1.025 0-1.947-.233-2.755-.703a4.962 4.962 0 0 1-1.883-1.926c-.45-.819-.673-1.72-.673-2.708l2.303-.067c.031.973.358 1.765.989 2.371.632.61 1.346.926 2.153.957a3.292 3.292 0 0 0 2.066-.936c.57-.554.854-1.227.854-2.014 0-.7-.228-1.33-.688-1.9-.456-.57-1.16-.973-2.113-1.211-1.294-.347-2.402-.84-3.323-1.465-.916-.626-1.45-1.558-1.59-2.79zm12.858 12.02V19.563h2.33v8.417a5.903 5.903 0 0 1 1.402-1.559 5.598 5.598 0 0 1 1.792-.936 6.795 6.795 0 0 1 2.024-.306c1.247 0 2.454.311 3.618.927 1.16.621 2.102 1.511 2.822 2.666.72 1.155 1.081 2.474 1.081 3.96v9.814h-2.298v-9.814c0-1.129-.248-2.091-.74-2.888a4.732 4.732 0 0 0-1.946-1.797 5.8 5.8 0 0 0-2.6-.6c-.905 0-1.749.191-2.536.574a4.632 4.632 0 0 0-1.9 1.719c-.48.761-.72 1.677-.72 2.743v10.063zm18.911 0V25.495h2.148v2.541c.942-1.94 2.598-2.914 4.964-2.914v2.324a4.52 4.52 0 0 0-1.667.342 5.409 5.409 0 0 0-1.589.968c-.482.425-.87.911-1.16 1.476a3.95 3.95 0 0 0-.429 1.816v10.498zm8.696-8.604c.036-1.362.3-2.583.802-3.67a8.399 8.399 0 0 1 2.014-2.78 8.998 8.998 0 0 1 2.806-1.75 9.059 9.059 0 0 1 3.168-.62c1.45 0 2.858.35 4.214 1.055 1.361.704 2.474 1.766 3.344 3.179.864 1.412 1.298 3.096 1.298 5.052v.43h-15.348c.1 1.258.487 2.334 1.16 3.22.673.89 1.486 1.552 2.443 1.992.963.44 1.9.663 2.827.663.822 0 1.656-.166 2.496-.492a7.373 7.373 0 0 0 2.225-1.356c.647-.574 1.103-1.211 1.372-1.91h2.355c-.476 1.304-1.17 2.408-2.082 3.313a8.868 8.868 0 0 1-3.064 2.003 9.552 9.552 0 0 1-3.421.647 9.288 9.288 0 0 1-4.246-1.21c-1.314-.746-2.37-1.792-3.167-3.132-.798-1.347-1.196-2.889-1.196-4.634zm15.41-1.15a6.734 6.734 0 0 0-1.21-2.722 6.799 6.799 0 0 0-2.32-1.998 6.334 6.334 0 0 0-3.028-.745c-1.46 0-2.671.346-3.634 1.035-.968.688-1.677 1.46-2.133 2.314-.455.849-.714 1.558-.787 2.117zm4.774 1.15c.036-1.362.3-2.583.802-3.67a8.384 8.384 0 0 1 2.014-2.78 8.996 8.996 0 0 1 2.805-1.75 9.062 9.062 0 0 1 3.168-.62c1.45 0 2.859.35 4.213 1.055 1.363.704 2.475 1.766 3.346 3.179.864 1.412 1.298 3.096 1.298 5.052v.43h-15.349c.1 1.258.488 2.334 1.16 3.22.673.89 1.485 1.552 2.444 1.992.963.44 1.899.663 2.827.663.822 0 1.656-.166 2.494-.492a7.34 7.34 0 0 0 2.226-1.356c.648-.574 1.102-1.211 1.372-1.91h2.356c-.476 1.304-1.171 2.408-2.082 3.313a8.868 8.868 0 0 1-3.064 2.003 9.558 9.558 0 0 1-3.422.647 9.285 9.285 0 0 1-4.244-1.21c-1.315-.746-2.371-1.792-3.168-3.132-.798-1.347-1.196-2.889-1.196-4.634zm15.41-1.15a6.734 6.734 0 0 0-1.21-2.722 6.823 6.823 0 0 0-2.32-1.998 6.337 6.337 0 0 0-3.028-.745c-1.46 0-2.671.346-3.635 1.035-.967.688-1.676 1.46-2.132 2.314-.456.849-.715 1.558-.788 2.117h13.113"/><path fill-rule="evenodd" d="M165.637 34.161c.015-1.356.28-2.593.798-3.72a8.634 8.634 0 0 1 2.074-2.874 9.247 9.247 0 0 1 2.926-1.812 9.099 9.099 0 0 1 3.302-.632c3.112.078 5.338 1.32 6.683 3.733v-3.303h2.236v16.994h-2.236v-3.23c-.636 1.144-1.559 2.03-2.77 2.661-1.205.626-2.571.942-4.1.942a9.824 9.824 0 0 1-3.349-.673 9.147 9.147 0 0 1-2.862-1.775 8.339 8.339 0 0 1-1.982-2.77c-.482-1.076-.72-2.257-.72-3.54zm2.36-.528c0 1.394.306 2.63.922 3.702.616 1.076 1.424 1.9 2.433 2.48a6.645 6.645 0 0 0 3.199.9c1.3 0 2.469-.31 3.514-.937a6.865 6.865 0 0 0 2.464-2.459c.596-1.009.891-2.065.891-3.158 0-1.2-.29-2.313-.864-3.328a6.62 6.62 0 0 0-2.376-2.438 6.994 6.994 0 0 0-3.319-1.004c-1.309 0-2.489.326-3.54.978-1.052.652-1.869 1.47-2.454 2.448-.579.984-.87 1.921-.87 2.816zm19.568 8.914V25.553h2.299v16.994zm0-19.044v-3.94h2.299v3.94zm6.211 19.044V25.496h2.15v2.541c.94-1.94 2.598-2.914 4.963-2.914v2.324c-.538 0-1.092.115-1.666.342a5.408 5.408 0 0 0-1.59.968 5.01 5.01 0 0 0-1.16 1.476 3.954 3.954 0 0 0-.429 1.816v10.498zm9.319 0V19.564h2.298v22.983zm6.181 0V25.553h2.297v16.994zm0-19.044v-3.94h2.297v3.94zm6.18 19.044V25.553h2.18V28.1a5.69 5.69 0 0 1 2.292-2.163 6.685 6.685 0 0 1 3.107-.756c.952 0 1.873.171 2.764.518.89.342 1.686.844 2.392 1.501.698.658 1.262 1.476 1.677 2.454.419.983.625 2.08.625 3.292v9.602h-2.236v-9.602c0-1.17-.253-2.175-.754-3.008-.503-.828-1.16-1.454-1.979-1.868a5.699 5.699 0 0 0-2.615-.622 5.49 5.49 0 0 0-2.53.596 4.688 4.688 0 0 0-1.9 1.78c-.482.793-.724 1.74-.724 2.843v9.881zm18.29-8.603c.035-1.362.3-2.583.802-3.67a8.38 8.38 0 0 1 2.012-2.78 9.018 9.018 0 0 1 5.975-2.37c1.449 0 2.858.35 4.213 1.055 1.361.704 2.476 1.766 3.345 3.179.864 1.412 1.299 3.096 1.299 5.052v.43h-15.35c.1 1.258.489 2.334 1.16 3.22.674.89 1.486 1.552 2.445 1.992.962.44 1.9.663 2.825.663a6.86 6.86 0 0 0 2.496-.492 7.34 7.34 0 0 0 2.225-1.356c.647-.574 1.103-1.211 1.372-1.91h2.356c-.477 1.304-1.17 2.408-2.081 3.313a8.88 8.88 0 0 1-3.064 2.003 9.563 9.563 0 0 1-3.423.647 9.285 9.285 0 0 1-4.244-1.21c-1.316-.746-2.37-1.792-3.168-3.132-.797-1.347-1.196-2.889-1.196-4.634zm15.41-1.15a6.734 6.734 0 0 0-1.21-2.722 6.816 6.816 0 0 0-2.322-1.998 6.328 6.328 0 0 0-3.027-.745c-1.46 0-2.672.346-3.634 1.035-.968.688-1.678 1.46-2.132 2.314-.456.849-.715 1.558-.788 2.117zm4.643-2.266a5.99 5.99 0 0 1-.031-.683c0-.984.244-1.833.735-2.542a4.702 4.702 0 0 1 1.849-1.59c.745-.357 1.464-.533 2.168-.533.57 0 1.139.099 1.708.29a5.043 5.043 0 0 1 1.553.855c.467.377.85.858 1.139 1.438.29.585.45 1.243.481 1.983h-2.329c-.041-.818-.3-1.413-.787-1.791-.481-.378-1.07-.57-1.765-.57-.61 0-1.18.202-1.703.601-.529.398-.808.984-.844 1.76.006.02.036.145.088.383l.103.455c.156.565.69 1.036 1.6 1.409.912.377 1.828.74 2.75 1.087.92.347 1.702.854 2.34 1.527.635.673.957 1.63.957 2.873 0 .212-.02.528-.068.937-.13 1.045-.471 1.905-1.035 2.583-.564.678-1.232 1.17-1.993 1.47-.766.3-1.518.45-2.256.45-1.026 0-1.947-.233-2.755-.703a4.963 4.963 0 0 1-1.884-1.926c-.45-.819-.673-1.72-.673-2.708l2.304-.067c.03.973.357 1.765.989 2.371.63.61 1.345.926 2.153.957a3.29 3.29 0 0 0 2.064-.936c.571-.554.855-1.227.855-2.014 0-.7-.228-1.33-.688-1.9-.456-.57-1.16-.973-2.112-1.211-1.295-.347-2.403-.84-3.324-1.465-.916-.626-1.45-1.558-1.59-2.79"/><path fill="#e42129" d="M4.038 37.131c-2.125 0-3.848-.379-3.848-.846 0-.467 1.723-.846 3.848-.846h20.647l.767.02c1.785.08 3.71-.288 5.853-1.373 2.89-1.461 5.436-3.97 7.509-7.913h.003l7.258-14.81v-.007c2.05-3.843 3.784-6.435 6.022-8.074C54.855 1.26 58.629.46 64.493.533h27.573c2.125 0 3.848.38 3.848.847 0 .467-1.723.847-3.848.847H64.452l-.27-.004c-1.767-.028-3.187.42-4.72 1.542-2.087 1.53-3.753 4.038-5.751 7.783h-.004l-7.257 14.81v.007c-2.163 4.115-4.92 6.782-8.11 8.396-3.82 1.934-8.582 2.566-13.94 2.37H4.038"/><path fill="#f7a707" d="M98.752 48.983c1.417 0 2.566.253 2.566.564 0 .312-1.15.565-2.566.565H78.28c-4.802.145-8.924-.315-11.964-1.737-2.63-1.23-4.448-3.26-5.15-6.392v-.006l-1.99-11.22h-.002c-.665-2.836-1.436-4.732-2.967-5.882-1.192-.895-2.808-1.248-5.315-1.218l-.14.002h-22c-1.416 0-2.565-.253-2.565-.565 0-.311 1.149-.564 2.565-.564h22c5.215-.05 8.377.54 10.365 2.033 1.667 1.251 2.483 3.22 3.168 6.136v.008l1.99 11.223h.001c.667 2.976 2.313 4.867 4.669 5.968 1.9.89 4.213 1.179 6.78 1.092l.38-.007h20.648"/></svg>
